<svg width="48" height="51" viewBox="0 0 48 51" fill="none" xmlns="http://www.w3.org/2000/svg">
<path d="M42 0.800049H21H6C2.7 0.800049 0 3.50005 0 6.80005C0 10.1 2.7 12.8 6 12.8H21H42C45.3 12.8 48 10.1 48 6.80005C48 3.50005 45.3 0.800049 42 0.800049ZM6 9.80005C4.35 9.80005 3 8.45005 3 6.80005C3 5.15005 4.35 3.80005 6 3.80005H21C22.65 3.80005 24 5.15005 24 6.80005C24 8.45005 22.65 9.80005 21 9.80005H6Z" fill="black"/>
<path d="M42 19.8H21H6C2.7 19.8 0 22.5 0 25.8C0 29.1 2.7 31.8 6 31.8H21H42C45.3 31.8 48 29.1 48 25.8C48 22.5 45.3 19.8 42 19.8ZM6 28.8C4.35 28.8 3 27.45 3 25.8C3 24.15 4.35 22.8 6 22.8H21C22.65 22.8 24 24.15 24 25.8C24 27.45 22.65 28.8 21 28.8H6Z" fill="black"/>
<path d="M42 38.8H21H6C2.7 38.8 0 41.5 0 44.8C0 48.1 2.7 50.8 6 50.8H21H42C45.3 50.8 48 48.1 48 44.8C48 41.5 45.3 38.8 42 38.8ZM6 47.8C4.35 47.8 3 46.45 3 44.8C3 43.15 4.35 41.8 6 41.8H21C22.65 41.8 24 43.15 24 44.8C24 46.45 22.65 47.8 21 47.8H6Z" fill="black"/>
</svg>
