<svg width="28" height="28" viewBox="0 0 28 28" fill="none" xmlns="http://www.w3.org/2000/svg">
<path d="M15.2047 0.424316V2.35275C17.1121 2.35275 18.899 2.83486 20.5655 3.79908C22.1516 4.74321 23.4165 6.00875 24.3601 7.59569C25.3239 9.26299 25.8057 11.0508 25.8057 12.9592H27.7332C27.7332 10.6892 27.161 8.58 26.0166 6.63147C24.9123 4.74321 23.4165 3.24666 21.5292 2.14183C19.5817 0.996821 17.4735 0.424316 15.2047 0.424316ZM5.23615 3.31697C4.69405 3.31697 4.22223 3.48772 3.82067 3.82921L0.718672 6.99305L0.809022 6.93279C0.307079 7.35464 -0.0242022 7.87692 -0.184824 8.49965C-0.325367 9.12237 -0.285212 9.72501 -0.0643576 10.3076C0.497817 11.8744 1.25073 13.4814 2.19438 15.1286C3.51951 17.3986 5.09561 19.4375 6.92268 21.2454C9.85402 24.1983 13.4981 26.5285 17.855 28.236H17.8851C18.4673 28.4369 19.0496 28.477 19.6318 28.3565C20.2342 28.236 20.7662 27.9749 21.228 27.5731L24.2698 24.5298C24.6713 24.128 24.8721 23.6359 24.8721 23.0533C24.8721 22.4507 24.6713 21.9485 24.2698 21.5467L20.3245 17.5693C19.923 17.1676 19.421 16.9667 18.8187 16.9667C18.2164 16.9667 17.7144 17.1676 17.3129 17.5693L15.4155 19.4978C13.8896 18.7746 12.5645 17.8807 11.4402 16.816C10.3158 15.7313 9.42235 14.4155 8.75978 12.8688L10.6872 10.9403C11.1089 10.4984 11.3197 9.97611 11.3197 9.37347C11.3197 8.75074 11.0788 8.24855 10.5969 7.86688L10.6872 7.95727L6.65163 3.82921C6.25007 3.48772 5.77825 3.31697 5.23615 3.31697ZM15.2047 4.28119V6.20963C16.4295 6.20963 17.5538 6.51095 18.5778 7.11358C19.6218 7.71622 20.445 8.53982 21.0473 9.58439C21.6497 10.6089 21.9508 11.7338 21.9508 12.9592H23.8783C23.8783 11.3923 23.4868 9.93593 22.7037 8.59004C21.9207 7.28433 20.8767 6.23976 19.5716 5.45633C18.2264 4.6729 16.7708 4.28119 15.2047 4.28119ZM5.23615 5.24541C5.29638 5.24541 5.36666 5.27554 5.44697 5.3358L9.39223 9.37347C9.41231 9.45382 9.39223 9.52413 9.332 9.58439L6.47093 12.4168L6.68174 13.0194L7.07326 13.8631C7.3945 14.5461 7.76594 15.209 8.18757 15.8518C8.76982 16.7558 9.41231 17.5292 10.115 18.172C11.0587 19.096 12.1931 19.9397 13.5182 20.703C14.1808 21.0847 14.7429 21.3659 15.2047 21.5467L15.807 21.8179L18.7284 18.8951C18.7685 18.855 18.7986 18.8349 18.8187 18.8349C18.8388 18.8349 18.8689 18.855 18.9091 18.8951L22.9748 22.9629C23.0149 23.0031 23.035 23.0332 23.035 23.0533C23.035 23.0533 23.0149 23.0734 22.9748 23.1136L19.9631 26.0966C19.5214 26.4783 19.0396 26.5787 18.5175 26.398C14.4217 24.811 11.0085 22.6415 8.27792 19.8895C6.59139 18.2021 5.11568 16.2837 3.85079 14.1343C2.94729 12.5875 2.24458 11.091 1.74263 9.64466V9.61452C1.66232 9.43373 1.65228 9.22281 1.71252 8.98176C1.77275 8.72061 1.88318 8.51973 2.0438 8.37912L5.02533 5.3358C5.08557 5.27554 5.15584 5.24541 5.23615 5.24541ZM15.2047 8.13806V10.0665C16.0078 10.0665 16.6905 10.3477 17.2526 10.9102C17.8148 11.4727 18.0959 12.1556 18.0959 12.9592H20.0234C20.0234 12.0954 19.8025 11.2919 19.3608 10.5486C18.9392 9.80536 18.3569 9.22281 17.614 8.80096C16.8712 8.35903 16.0681 8.13806 15.2047 8.13806Z" fill="black"/>
</svg>
