<svg width="50" height="56" viewBox="0 0 50 56" fill="none" xmlns="http://www.w3.org/2000/svg">
<path d="M25 12.8C28.7084 12.8 32.3335 13.8997 35.417 15.96C38.5004 18.0203 40.9036 20.9486 42.3228 24.3747C43.7419 27.8008 44.1132 31.5708 43.3897 35.208C42.6663 38.8451 40.8805 42.1861 38.2583 44.8083C35.636 47.4305 32.2951 49.2163 28.658 49.9398C25.0208 50.6632 21.2508 50.2919 17.8247 48.8728C14.3986 47.4536 11.4702 45.0504 9.40996 41.967C7.34968 38.8836 6.25001 35.2584 6.25001 31.55C6.25001 26.5772 8.22545 21.8081 11.7418 18.2918C15.2581 14.7755 20.0272 12.8 25 12.8ZM25 7.80005C20.3027 7.80005 15.7109 9.19296 11.8052 11.8026C7.89955 14.4123 4.85545 18.1216 3.05787 22.4613C1.26029 26.8011 0.789961 31.5764 1.70636 36.1834C2.62276 40.7905 4.88473 45.0223 8.20622 48.3438C11.5277 51.6653 15.7596 53.9273 20.3666 54.8437C24.9737 55.7601 29.749 55.2898 34.0887 53.4922C38.4285 51.6946 42.1377 48.6505 44.7474 44.7448C47.3571 40.8392 48.75 36.2474 48.75 31.55C48.75 25.2512 46.2478 19.2103 41.7938 14.7563C37.3398 10.3023 31.2989 7.80005 25 7.80005Z" fill="black"/>
<path d="M35 39.05C34.5543 39.0593 34.117 38.9281 33.75 38.675L22.5 32.925V21.55C22.5 20.887 22.7634 20.2511 23.2322 19.7823C23.7011 19.3134 24.337 19.05 25 19.05C25.663 19.05 26.2989 19.3134 26.7678 19.7823C27.2366 20.2511 27.5 20.887 27.5 21.55V30.175L36.25 34.425C36.5384 34.58 36.7917 34.7929 36.994 35.0504C37.1962 35.3078 37.343 35.6044 37.4252 35.9213C37.5073 36.2382 37.5231 36.5687 37.4714 36.892C37.4198 37.2154 37.3018 37.5245 37.125 37.8C36.9191 38.1829 36.6121 38.502 36.2374 38.7224C35.8627 38.9428 35.4347 39.0561 35 39.05Z" fill="black"/>
<path d="M2.5 12.8003C2.11357 12.7911 1.73393 12.6968 1.3882 12.5239C1.04247 12.351 0.739178 12.1039 0.5 11.8003C0.303017 11.5376 0.159695 11.2388 0.0782157 10.9207C-0.0032633 10.6027 -0.0213029 10.2717 0.0251264 9.94674C0.118895 9.29036 0.469567 8.69812 1 8.30029L11 0.800293C11.2626 0.60331 11.5615 0.459988 11.8795 0.378509C12.1976 0.29703 12.5285 0.27899 12.8536 0.325419C13.1786 0.371849 13.4912 0.481838 13.7737 0.649107C14.0562 0.816376 14.303 1.03765 14.5 1.30029C14.697 1.56294 14.8403 1.86181 14.9218 2.17984C15.0033 2.49787 15.0213 2.82884 14.9749 3.15385C14.9284 3.47885 14.8185 3.79153 14.6512 4.07403C14.4839 4.35652 14.2626 4.60331 14 4.80029L4 12.3003C3.57178 12.6334 3.04243 12.8098 2.5 12.8003Z" fill="black"/>
<path d="M47.5 12.8001C46.9576 12.8096 46.4282 12.6332 46 12.3001L36 4.80006C35.7374 4.60308 35.5161 4.35629 35.3488 4.07379C35.1815 3.79129 35.0716 3.47862 35.0251 3.15361C34.9787 2.82861 34.9967 2.49764 35.0782 2.17961C35.1597 1.86157 35.303 1.5627 35.5 1.30006C35.8978 0.769626 36.4901 0.418953 37.1464 0.325185C37.8028 0.231417 38.4696 0.402234 39 0.800059L49 8.30006C49.5304 8.69788 49.8811 9.29013 49.9749 9.9465C50.0686 10.6029 49.8978 11.2696 49.5 11.8001C49.2608 12.1037 48.9575 12.3508 48.6118 12.5237C48.2661 12.6965 47.8864 12.7909 47.5 12.8001Z" fill="black"/>
</svg>
