<svg width="12" height="11" viewBox="0 0 12 11" fill="none" xmlns="http://www.w3.org/2000/svg">
<g clip-path="url(#clip0_186_4201)">
<path fill-rule="evenodd" clip-rule="evenodd" d="M3.06572 9.85148L5.26348 8.57732C5.71579 8.3151 6.28298 8.31506 6.73532 8.57724L8.93436 9.85179L8.35197 7.46449C8.23249 6.97472 8.40573 6.46189 8.80224 6.13161L10.739 4.51828L8.18835 4.31109C7.66433 4.26853 7.20782 3.95241 7.00192 3.48952L6 1.23709L4.99808 3.48952C4.79218 3.95241 4.33567 4.26853 3.81165 4.31109L1.26096 4.51828L3.19776 6.13161C3.59427 6.46189 3.76751 6.97472 3.64803 7.46449L3.06572 9.85148ZM5.70508 9.27422C5.886 9.16933 6.11287 9.16931 6.29381 9.27418L9.0699 10.8832C9.5 11.1325 10.0316 10.7636 9.91735 10.2951L9.18164 7.27931C9.13384 7.0834 9.20314 6.87827 9.36174 6.74615L11.8042 4.71158C12.1826 4.39643 11.9792 3.80116 11.4793 3.76056L8.26044 3.4991C8.05083 3.48208 7.86823 3.35563 7.78587 3.17047L6.52263 0.330576C6.32657 -0.110192 5.67343 -0.110192 5.47737 0.330576L4.21413 3.17047C4.13177 3.35563 3.94917 3.48208 3.73956 3.4991L0.520702 3.76056C0.0208074 3.80116 -0.182582 4.39643 0.195758 4.71158L2.63826 6.74615C2.79686 6.87827 2.86616 7.0834 2.81837 7.2793L2.08271 10.2949C1.96842 10.7634 2.50012 11.1323 2.93021 10.883L5.70508 9.27422Z" fill="#FFC500"/>
<mask id="mask0_186_4201" style="mask-type:alpha" maskUnits="userSpaceOnUse" x="0" y="0" width="12" height="11">
<path d="M6.29381 9.27418C6.11287 9.16932 5.886 9.16933 5.70508 9.27422L2.93021 10.883C2.50012 11.1323 1.96842 10.7634 2.08271 10.2949L2.81837 7.2793C2.86616 7.0834 2.79686 6.87827 2.63826 6.74615L0.195758 4.71158C-0.182582 4.39643 0.0208074 3.80116 0.520702 3.76056L3.73956 3.4991C3.94917 3.48208 4.13177 3.35563 4.21413 3.17047L5.47737 0.330576C5.67343 -0.110192 6.32657 -0.110192 6.52263 0.330576L7.78587 3.17047C7.86823 3.35563 8.05083 3.48208 8.26044 3.4991L11.4793 3.76056C11.9792 3.80116 12.1826 4.39643 11.8042 4.71158L9.36174 6.74615C9.20314 6.87827 9.13384 7.0834 9.18164 7.27931L9.91735 10.2951C10.0316 10.7636 9.5 11.1325 9.0699 10.8832L6.29381 9.27418Z" fill="#FFC500"/>
</mask>
<g mask="url(#mask0_186_4201)">
<rect width="6" height="10.9622" fill="#FFC500"/>
</g>
</g>
<defs>
<clipPath id="clip0_186_4201">
<rect width="12" height="11" fill="white"/>
</clipPath>
</defs>
</svg>
