<svg width="12" height="11" viewBox="0 0 12 11" fill="none" xmlns="http://www.w3.org/2000/svg">
<g clip-path="url(#clip0_186_4199)">
<path d="M6.29381 9.27418C6.11287 9.16932 5.886 9.16933 5.70508 9.27422L2.93021 10.883C2.50012 11.1323 1.96842 10.7634 2.08271 10.2949L2.81837 7.2793C2.86616 7.0834 2.79686 6.87827 2.63826 6.74615L0.195758 4.71158C-0.182582 4.39643 0.0208074 3.80116 0.520702 3.76056L3.73956 3.4991C3.94917 3.48208 4.13177 3.35563 4.21413 3.17047L5.47737 0.330576C5.67343 -0.110192 6.32657 -0.110192 6.52263 0.330576L7.78587 3.17047C7.86823 3.35563 8.05083 3.48208 8.26044 3.4991L11.4793 3.76056C11.9792 3.80116 12.1826 4.39643 11.8042 4.71158L9.36174 6.74615C9.20314 6.87827 9.13384 7.0834 9.18164 7.27931L9.91735 10.2951C10.0316 10.7636 9.5 11.1325 9.0699 10.8832L6.29381 9.27418Z" fill="#FFC500"/>
</g>
<defs>
<clipPath id="clip0_186_4199">
<rect width="12" height="11" fill="white"/>
</clipPath>
</defs>
</svg>
