<svg width="18" height="18" viewBox="0 0 18 18" fill="none" xmlns="http://www.w3.org/2000/svg">
<path d="M0 6V16.4C0 16.9601 0 17.2399 0.108993 17.4538C0.204867 17.642 0.357736 17.7952 0.545898 17.8911C0.759601 18 1.0395 18 1.59846 18H12.0001M11 10V7M11 7V4M11 7H8M11 7H14M4 10.8002V3.2002C4 2.08009 4 1.51962 4.21799 1.0918C4.40973 0.715473 4.71547 0.409734 5.0918 0.217987C5.51962 0 6.08009 0 7.2002 0H14.8002C15.9203 0 16.4801 0 16.9079 0.217987C17.2842 0.409734 17.5905 0.715473 17.7822 1.0918C18.0002 1.51962 18.0002 2.07969 18.0002 3.19978L18.0002 10.7998C18.0002 11.9199 18.0002 12.48 17.7822 12.9078C17.5905 13.2841 17.2842 13.5905 16.9079 13.7822C16.4805 14 15.9215 14 14.8036 14H7.19691C6.07899 14 5.5192 14 5.0918 13.7822C4.71547 13.5905 4.40973 13.2842 4.21799 12.9079C4 12.4801 4 11.9203 4 10.8002Z" stroke="black" stroke-width="1.5" stroke-linecap="round" stroke-linejoin="round"/>
</svg>
