<svg width="52" height="53" viewBox="0 0 52 53" fill="none" xmlns="http://www.w3.org/2000/svg">
<path d="M26 42.4C21.7967 42.4 18.2 40.97 15.21 38.11C12.22 35.25 10.6167 31.7184 10.4 27.515L14.495 28.815C14.9717 31.5884 16.2717 33.8959 18.395 35.7375C20.5183 37.5792 23.0533 38.5 26 38.5C29.25 38.5 32.0125 37.3625 34.2875 35.0875C36.5625 32.8125 37.7 30.05 37.7 26.8C37.7 23.8967 36.7792 21.3725 34.9375 19.2275C33.0958 17.0825 30.7883 15.7717 28.015 15.295L26.78 11.2C30.94 11.4167 34.45 13.02 37.31 16.01C40.17 19 41.6 22.5967 41.6 26.8C41.6 31.1334 40.0833 34.8167 37.05 37.85C34.0167 40.8834 30.3333 42.4 26 42.4ZM26 52.8C22.4033 52.8 19.0233 52.1175 15.86 50.7525C12.6967 49.3875 9.945 47.535 7.605 45.195C5.265 42.855 3.4125 40.1034 2.0475 36.94C0.6825 33.7767 0 30.3967 0 26.8C0 26.41 0.0108333 26.02 0.0325 25.63C0.0541667 25.24 0.0866667 24.85 0.13 24.46L3.9 25.63V26.8C3.9 32.9534 6.045 38.175 10.335 42.465C14.625 46.755 19.8467 48.9 26 48.9C32.1533 48.9 37.375 46.755 41.665 42.465C45.955 38.175 48.1 32.9534 48.1 26.8C48.1 20.6467 45.955 15.425 41.665 11.135C37.375 6.84505 32.1533 4.70005 26 4.70005H24.83L23.66 0.930049C24.05 0.886715 24.44 0.854215 24.83 0.832549C25.22 0.810882 25.61 0.800049 26 0.800049C29.5967 0.800049 32.9767 1.48255 36.14 2.84755C39.3033 4.21255 42.055 6.06505 44.395 8.40505C46.735 10.745 48.5875 13.4967 49.9525 16.66C51.3175 19.8234 52 23.2034 52 26.8C52 30.3967 51.3175 33.7767 49.9525 36.94C48.5875 40.1034 46.735 42.855 44.395 45.195C42.055 47.535 39.3033 49.3875 36.14 50.7525C32.9767 52.1175 29.5967 52.8 26 52.8ZM22.165 28.1L11.05 16.985L7.8 26.8L0 0.800049L26 8.60005L16.185 11.85L27.3 22.965L22.165 28.1Z" fill="black"/>
</svg>
